<?xml version="1.0" encoding="utf-8"?>
<!-- Generator: Adobe Illustrator 19.0.0, SVG Export Plug-In . SVG Version: 6.00 Build 0)  -->
<svg version="1.1" id="Слой_1" xmlns="http://www.w3.org/2000/svg" xmlns:xlink="http://www.w3.org/1999/xlink" x="0px" y="0px"
	 viewBox="0 0 300 120" style="enable-background:new 0 0 300 120;" xml:space="preserve">
<style type="text/css">
	.st0{fill:#0D0F0F;}
	.st1{fill:none;}
	.st2{font-family:'Roboto-Regular';}
	.st3{font-size:24px;}
</style>
<path id="XMLID_18_" class="st0" d="M124,17.9H92.3L84.2,9c-2.4-2.6-5.9-4.1-9.5-4.1H15.5c-4.7,0-8.5,3.8-8.5,8.5v13v78.1
	c0,4.7,3.8,8.5,8.5,8.5H124c4.7,0,8.5-3.8,8.5-8.5V26.4C132.6,21.7,128.7,17.9,124,17.9z M81.2,11.8l5.6,6.1h-7.5L71.1,9
	c0,0,0-0.1-0.1-0.1h3.6C77.1,8.9,79.5,10,81.2,11.8z M61.7,8.9c2.5,0,4.8,1,6.5,2.8l5.6,6.1h-8.5L57.1,9c0,0,0-0.1-0.1-0.1H61.7z
	 M15.5,8.9h32.1c2.5,0,4.8,1,6.5,2.8l5.6,6.1H15.5c-1.6,0-3.2,0.5-4.5,1.3v-5.7C11,10.9,13,8.9,15.5,8.9z M128.5,104.6
	c0,2.5-2,4.5-4.5,4.5H15.5c-2.5,0-4.5-2-4.5-4.5V26.4c0-2.5,2-4.5,4.5-4.5H124c2.5,0,4.5,2,4.5,4.5V104.6z"/>
<g id="XMLID_1_">
	<path id="XMLID_807_" class="st0" d="M95.4,71.4c2.5,2.5,5.2,4.8,7.4,7.5c1,1.2,1.9,2.4,2.7,3.8c1,2,0.1,4.2-1.7,4.3l-11.1,0
		c-2.9,0.2-5.1-0.9-7.1-2.9c-1.5-1.6-3-3.2-4.4-4.8c-0.6-0.7-1.2-1.3-2-1.8c-1.5-1-2.8-0.7-3.7,0.9c-0.9,1.6-1.1,3.4-1.2,5.2
		c-0.1,2.6-0.9,3.3-3.5,3.4c-5.6,0.3-10.9-0.6-15.8-3.4c-4.4-2.5-7.7-6-10.7-10c-5.7-7.7-10.1-16.3-14-25c-0.9-2-0.2-3,1.9-3.1
		c3.6-0.1,7.2-0.1,10.8,0c1.5,0,2.4,0.9,3,2.3c2,4.8,4.3,9.4,7.3,13.6c0.8,1.1,1.6,2.3,2.8,3.1c1.3,0.9,2.3,0.6,2.9-0.8
		c0.4-0.9,0.6-1.9,0.6-2.9c0.3-3.3,0.3-6.7-0.2-10c-0.3-2.1-1.5-3.4-3.6-3.8c-1.1-0.2-0.9-0.6-0.4-1.2c0.9-1,1.7-1.7,3.4-1.7h12.5
		c2,0.4,2.4,1.3,2.7,3.3l0,13.9c0,0.8,0.4,3,1.8,3.6c1.1,0.4,1.8-0.5,2.5-1.2c3-3.2,5.1-6.9,7-10.8c0.8-1.7,1.6-3.5,2.3-5.3
		c0.5-1.3,1.3-2,2.8-1.9l12,0c0.4,0,0.7,0,1.1,0.1c2,0.3,2.6,1.2,2,3.2c-1,3.1-2.9,5.7-4.8,8.3c-2,2.8-4.2,5.5-6.2,8.3
		C93,67.9,93.2,69.1,95.4,71.4L95.4,71.4z"/>
</g>
<rect id="XMLID_23_" x="148.9" y="27.1" class="st1" width="158.8" height="84.7"/>
<text id="XMLID_3_" transform="matrix(1 0 0 1 148.8621 45.1449)"><tspan x="0" y="0" class="st2 st3">Document</tspan><tspan x="0" y="28.8" class="st2 st3">Management</tspan><tspan x="0" y="57.6" class="st2 st3">System</tspan></text>
</svg>
